# xmcd
#
# Track frame offsets:
#	300
#	21924
#	36130
#	52544
#	72083
#	90186
#	108573
#	125733
#	143418
#	158317
#	171839
#	187821
#	206247
#	224407
#	241654
#	255223
#	277838
#	292977
#
# Disc length: 4147 seconds
#
# Revision: 2
# Processed by: cddbd v1.5.2PL0 Copyright (c) Steve Scherf et al.
# Submitted via: audiograbber 1.83.01
#
DISCID=e6102f12
DTITLE=Various Artist - SFG347
DYEAR=2015
DGENRE=Karaoke
TTITLE0=Mark Ronson f. Bruno Mars - Uptown funk
TTITLE1=Fifth Harmony - Bo$$
TTITLE2=Gorgon City f. Jennifer Hudson - Go all night
TTITLE3=James Bay - Hold back the river
TTITLE4=Olly Murs f. Demi Lovato - Up
TTITLE5=Ben Haenow - Something I need
TTITLE6=Alesso f. Tove Lo - Heroes
TTITLE7=Echosmith - Cool kids
TTITLE8=Meghan Trainor - Lips are movin'
TTITLE9=Ella Henderson - Yours
TTITLE10=Oliver Heldens f. K Stewart - Last all night (koala)
TTITLE11=Band Aid 30 - Do they know it's christmas (2014)
TTITLE12=One Direction - Night changes
TTITLE13=Wretch 32 - 6 words
TTITLE14=Sam Smith - Like I can
TTITLE15=Labrinth - Jealous
TTITLE16=Blonde f. Mellisa Steel - I loved you
TTITLE17=Jennifer Lawrence - The hanging tree
EXTD=
EXTT0=
EXTT1=
EXTT2=
EXTT3=
EXTT4=
EXTT5=
EXTT6=
EXTT7=
EXTT8=
EXTT9=
EXTT10=
EXTT11=
EXTT12=
EXTT13=
EXTT14=
EXTT15=
EXTT16=
EXTT17=
PLAYORDER=
